<mxfile host="app.diagrams.net" modified="2023-03-27T03:35:56.681Z" agent="Mozilla/5.0 (Windows NT 10.0; Win64; x64) AppleWebKit/537.36 (KHTML, like Gecko) Chrome/111.0.0.0 Safari/537.36" etag="9OhuR4yQ5Fsu7lXyaPDt" version="21.1.1" type="github">
  <diagram id="C5RBs43oDa-KdzZeNtuy" name="Page-1">
    <mxGraphModel dx="1687" dy="936" grid="1" gridSize="10" guides="1" tooltips="1" connect="1" arrows="1" fold="1" page="1" pageScale="1" pageWidth="1169" pageHeight="827" math="0" shadow="0">
      <root>
        <mxCell id="WIyWlLk6GJQsqaUBKTNV-0" />
        <mxCell id="WIyWlLk6GJQsqaUBKTNV-1" parent="WIyWlLk6GJQsqaUBKTNV-0" />
        <mxCell id="M4YgnX9QREzVjURdx8Bi-55" style="edgeStyle=orthogonalEdgeStyle;rounded=0;orthogonalLoop=1;jettySize=auto;html=1;" edge="1" parent="WIyWlLk6GJQsqaUBKTNV-1" source="M4YgnX9QREzVjURdx8Bi-3" target="M4YgnX9QREzVjURdx8Bi-56">
          <mxGeometry relative="1" as="geometry">
            <mxPoint x="684" y="255" as="targetPoint" />
            <Array as="points">
              <mxPoint x="684" y="460" />
              <mxPoint x="914" y="460" />
            </Array>
          </mxGeometry>
        </mxCell>
        <mxCell id="M4YgnX9QREzVjURdx8Bi-3" value="Daireler" style="rounded=0;whiteSpace=wrap;html=1;" vertex="1" parent="WIyWlLk6GJQsqaUBKTNV-1">
          <mxGeometry x="624" y="295" width="120" height="60" as="geometry" />
        </mxCell>
        <mxCell id="M4YgnX9QREzVjURdx8Bi-73" style="edgeStyle=orthogonalEdgeStyle;rounded=0;orthogonalLoop=1;jettySize=auto;html=1;entryX=0;entryY=0.5;entryDx=0;entryDy=0;" edge="1" parent="WIyWlLk6GJQsqaUBKTNV-1" source="M4YgnX9QREzVjURdx8Bi-9" target="M4YgnX9QREzVjURdx8Bi-14">
          <mxGeometry relative="1" as="geometry">
            <Array as="points">
              <mxPoint x="914" y="325" />
            </Array>
          </mxGeometry>
        </mxCell>
        <mxCell id="M4YgnX9QREzVjURdx8Bi-9" value="&lt;u&gt;No&lt;/u&gt;" style="ellipse;whiteSpace=wrap;html=1;" vertex="1" parent="WIyWlLk6GJQsqaUBKTNV-1">
          <mxGeometry x="984" y="370" width="120" height="50" as="geometry" />
        </mxCell>
        <mxCell id="M4YgnX9QREzVjURdx8Bi-14" value="Kat numarasi" style="ellipse;whiteSpace=wrap;html=1;" vertex="1" parent="WIyWlLk6GJQsqaUBKTNV-1">
          <mxGeometry x="984" y="300" width="120" height="50" as="geometry" />
        </mxCell>
        <mxCell id="M4YgnX9QREzVjURdx8Bi-19" style="edgeStyle=orthogonalEdgeStyle;rounded=0;orthogonalLoop=1;jettySize=auto;html=1;" edge="1" parent="WIyWlLk6GJQsqaUBKTNV-1" source="M4YgnX9QREzVjURdx8Bi-17" target="M4YgnX9QREzVjURdx8Bi-18">
          <mxGeometry relative="1" as="geometry">
            <Array as="points">
              <mxPoint x="160" y="325" />
              <mxPoint x="160" y="420" />
            </Array>
          </mxGeometry>
        </mxCell>
        <mxCell id="M4YgnX9QREzVjURdx8Bi-26" style="edgeStyle=orthogonalEdgeStyle;rounded=0;orthogonalLoop=1;jettySize=auto;html=1;" edge="1" parent="WIyWlLk6GJQsqaUBKTNV-1" source="M4YgnX9QREzVjURdx8Bi-17" target="M4YgnX9QREzVjURdx8Bi-24">
          <mxGeometry relative="1" as="geometry" />
        </mxCell>
        <mxCell id="M4YgnX9QREzVjURdx8Bi-17" value="Ev Sahipleri" style="rounded=0;whiteSpace=wrap;html=1;" vertex="1" parent="WIyWlLk6GJQsqaUBKTNV-1">
          <mxGeometry x="180" y="295" width="120" height="60" as="geometry" />
        </mxCell>
        <mxCell id="M4YgnX9QREzVjURdx8Bi-18" value="Isım" style="ellipse;whiteSpace=wrap;html=1;" vertex="1" parent="WIyWlLk6GJQsqaUBKTNV-1">
          <mxGeometry x="10" y="395" width="120" height="50" as="geometry" />
        </mxCell>
        <mxCell id="M4YgnX9QREzVjURdx8Bi-23" value="" style="ellipse;whiteSpace=wrap;html=1;" vertex="1" parent="WIyWlLk6GJQsqaUBKTNV-1">
          <mxGeometry x="170" y="205" width="125" height="55" as="geometry" />
        </mxCell>
        <mxCell id="M4YgnX9QREzVjURdx8Bi-21" value="Telefon" style="ellipse;whiteSpace=wrap;html=1;" vertex="1" parent="WIyWlLk6GJQsqaUBKTNV-1">
          <mxGeometry x="172.5" y="207.5" width="120" height="50" as="geometry" />
        </mxCell>
        <mxCell id="M4YgnX9QREzVjURdx8Bi-24" value="&lt;u&gt;No&lt;/u&gt;" style="ellipse;whiteSpace=wrap;html=1;" vertex="1" parent="WIyWlLk6GJQsqaUBKTNV-1">
          <mxGeometry x="10" y="300" width="120" height="50" as="geometry" />
        </mxCell>
        <mxCell id="M4YgnX9QREzVjURdx8Bi-32" style="edgeStyle=orthogonalEdgeStyle;rounded=0;orthogonalLoop=1;jettySize=auto;html=1;entryX=1;entryY=0.5;entryDx=0;entryDy=0;" edge="1" parent="WIyWlLk6GJQsqaUBKTNV-1" source="M4YgnX9QREzVjURdx8Bi-27" target="M4YgnX9QREzVjURdx8Bi-31">
          <mxGeometry relative="1" as="geometry">
            <mxPoint x="580" y="130" as="targetPoint" />
          </mxGeometry>
        </mxCell>
        <mxCell id="M4YgnX9QREzVjURdx8Bi-35" style="edgeStyle=orthogonalEdgeStyle;rounded=0;orthogonalLoop=1;jettySize=auto;html=1;entryX=0.5;entryY=1;entryDx=0;entryDy=0;" edge="1" parent="WIyWlLk6GJQsqaUBKTNV-1" source="M4YgnX9QREzVjURdx8Bi-27" target="M4YgnX9QREzVjURdx8Bi-30">
          <mxGeometry relative="1" as="geometry" />
        </mxCell>
        <mxCell id="M4YgnX9QREzVjURdx8Bi-27" value="Kiracı" style="rounded=0;whiteSpace=wrap;html=1;" vertex="1" parent="WIyWlLk6GJQsqaUBKTNV-1">
          <mxGeometry x="624" y="70" width="120" height="60" as="geometry" />
        </mxCell>
        <mxCell id="M4YgnX9QREzVjURdx8Bi-30" value="Isım" style="ellipse;whiteSpace=wrap;html=1;" vertex="1" parent="WIyWlLk6GJQsqaUBKTNV-1">
          <mxGeometry x="624" width="120" height="50" as="geometry" />
        </mxCell>
        <mxCell id="M4YgnX9QREzVjURdx8Bi-31" value="&lt;u&gt;No&lt;/u&gt;" style="ellipse;whiteSpace=wrap;html=1;" vertex="1" parent="WIyWlLk6GJQsqaUBKTNV-1">
          <mxGeometry x="450" y="75" width="120" height="50" as="geometry" />
        </mxCell>
        <mxCell id="M4YgnX9QREzVjURdx8Bi-36" value="" style="ellipse;whiteSpace=wrap;html=1;" vertex="1" parent="WIyWlLk6GJQsqaUBKTNV-1">
          <mxGeometry x="620" y="170" width="125" height="55" as="geometry" />
        </mxCell>
        <mxCell id="M4YgnX9QREzVjURdx8Bi-37" value="Telefon" style="ellipse;whiteSpace=wrap;html=1;" vertex="1" parent="WIyWlLk6GJQsqaUBKTNV-1">
          <mxGeometry x="622.5" y="172.5" width="120" height="50" as="geometry" />
        </mxCell>
        <mxCell id="M4YgnX9QREzVjURdx8Bi-38" style="edgeStyle=orthogonalEdgeStyle;rounded=0;orthogonalLoop=1;jettySize=auto;html=1;" edge="1" parent="WIyWlLk6GJQsqaUBKTNV-1" source="M4YgnX9QREzVjURdx8Bi-27" target="M4YgnX9QREzVjURdx8Bi-37">
          <mxGeometry relative="1" as="geometry" />
        </mxCell>
        <mxCell id="M4YgnX9QREzVjURdx8Bi-44" style="edgeStyle=orthogonalEdgeStyle;rounded=0;orthogonalLoop=1;jettySize=auto;html=1;" edge="1" parent="WIyWlLk6GJQsqaUBKTNV-1" source="M4YgnX9QREzVjURdx8Bi-39" target="M4YgnX9QREzVjURdx8Bi-40">
          <mxGeometry relative="1" as="geometry" />
        </mxCell>
        <mxCell id="M4YgnX9QREzVjURdx8Bi-45" style="edgeStyle=orthogonalEdgeStyle;rounded=0;orthogonalLoop=1;jettySize=auto;html=1;entryX=0.5;entryY=0;entryDx=0;entryDy=0;" edge="1" parent="WIyWlLk6GJQsqaUBKTNV-1" source="M4YgnX9QREzVjURdx8Bi-39" target="M4YgnX9QREzVjURdx8Bi-41">
          <mxGeometry relative="1" as="geometry" />
        </mxCell>
        <mxCell id="M4YgnX9QREzVjURdx8Bi-46" style="edgeStyle=orthogonalEdgeStyle;rounded=0;orthogonalLoop=1;jettySize=auto;html=1;entryX=0;entryY=0.5;entryDx=0;entryDy=0;" edge="1" parent="WIyWlLk6GJQsqaUBKTNV-1" source="M4YgnX9QREzVjURdx8Bi-39" target="M4YgnX9QREzVjURdx8Bi-42">
          <mxGeometry relative="1" as="geometry" />
        </mxCell>
        <mxCell id="M4YgnX9QREzVjURdx8Bi-50" style="edgeStyle=orthogonalEdgeStyle;rounded=0;orthogonalLoop=1;jettySize=auto;html=1;entryX=0;entryY=0.5;entryDx=0;entryDy=0;" edge="1" parent="WIyWlLk6GJQsqaUBKTNV-1" source="M4YgnX9QREzVjURdx8Bi-39" target="M4YgnX9QREzVjURdx8Bi-43">
          <mxGeometry relative="1" as="geometry" />
        </mxCell>
        <mxCell id="M4YgnX9QREzVjURdx8Bi-39" value="Binalar" style="rounded=0;whiteSpace=wrap;html=1;" vertex="1" parent="WIyWlLk6GJQsqaUBKTNV-1">
          <mxGeometry x="620" y="530" width="120" height="60" as="geometry" />
        </mxCell>
        <mxCell id="M4YgnX9QREzVjURdx8Bi-40" value="&lt;u&gt;No&lt;/u&gt;" style="ellipse;whiteSpace=wrap;html=1;" vertex="1" parent="WIyWlLk6GJQsqaUBKTNV-1">
          <mxGeometry x="450" y="575" width="120" height="50" as="geometry" />
        </mxCell>
        <mxCell id="M4YgnX9QREzVjURdx8Bi-41" value="Bina ismi" style="ellipse;whiteSpace=wrap;html=1;" vertex="1" parent="WIyWlLk6GJQsqaUBKTNV-1">
          <mxGeometry x="620" y="680" width="120" height="50" as="geometry" />
        </mxCell>
        <mxCell id="M4YgnX9QREzVjURdx8Bi-42" value="Bina adresi" style="ellipse;whiteSpace=wrap;html=1;" vertex="1" parent="WIyWlLk6GJQsqaUBKTNV-1">
          <mxGeometry x="740" y="615" width="120" height="50" as="geometry" />
        </mxCell>
        <mxCell id="M4YgnX9QREzVjURdx8Bi-43" value="Bina daire sayısı" style="ellipse;whiteSpace=wrap;html=1;" vertex="1" parent="WIyWlLk6GJQsqaUBKTNV-1">
          <mxGeometry x="860" y="540" width="120" height="50" as="geometry" />
        </mxCell>
        <mxCell id="M4YgnX9QREzVjURdx8Bi-51" style="edgeStyle=orthogonalEdgeStyle;rounded=0;orthogonalLoop=1;jettySize=auto;html=1;entryX=0.5;entryY=1;entryDx=0;entryDy=0;" edge="1" parent="WIyWlLk6GJQsqaUBKTNV-1" source="M4YgnX9QREzVjURdx8Bi-17" target="M4YgnX9QREzVjURdx8Bi-21">
          <mxGeometry relative="1" as="geometry" />
        </mxCell>
        <mxCell id="M4YgnX9QREzVjURdx8Bi-56" value="Daire sahibi no" style="ellipse;whiteSpace=wrap;html=1;" vertex="1" parent="WIyWlLk6GJQsqaUBKTNV-1">
          <mxGeometry x="984" y="222.5" width="120" height="50" as="geometry" />
        </mxCell>
        <mxCell id="M4YgnX9QREzVjURdx8Bi-72" value="" style="edgeStyle=entityRelationEdgeStyle;fontSize=12;html=1;endArrow=ERoneToMany;startArrow=ERmandOne;rounded=0;exitX=1;exitY=0.25;exitDx=0;exitDy=0;" edge="1" parent="WIyWlLk6GJQsqaUBKTNV-1" source="M4YgnX9QREzVjURdx8Bi-39" target="M4YgnX9QREzVjURdx8Bi-3">
          <mxGeometry width="100" height="100" relative="1" as="geometry">
            <mxPoint x="622.5" y="460" as="sourcePoint" />
            <mxPoint x="740" y="350" as="targetPoint" />
          </mxGeometry>
        </mxCell>
        <mxCell id="M4YgnX9QREzVjURdx8Bi-74" value="" style="edgeStyle=entityRelationEdgeStyle;fontSize=12;html=1;endArrow=ERoneToMany;startArrow=ERzeroToOne;rounded=0;exitX=1;exitY=0.5;exitDx=0;exitDy=0;entryX=0;entryY=0.5;entryDx=0;entryDy=0;" edge="1" parent="WIyWlLk6GJQsqaUBKTNV-1" source="M4YgnX9QREzVjURdx8Bi-17" target="M4YgnX9QREzVjURdx8Bi-3">
          <mxGeometry width="100" height="100" relative="1" as="geometry">
            <mxPoint x="470" y="520" as="sourcePoint" />
            <mxPoint x="570" y="420" as="targetPoint" />
          </mxGeometry>
        </mxCell>
        <mxCell id="M4YgnX9QREzVjURdx8Bi-75" value="" style="edgeStyle=entityRelationEdgeStyle;fontSize=12;html=1;endArrow=ERoneToMany;startArrow=ERzeroToOne;rounded=0;exitX=1;exitY=0.5;exitDx=0;exitDy=0;entryX=1;entryY=0.25;entryDx=0;entryDy=0;" edge="1" parent="WIyWlLk6GJQsqaUBKTNV-1" source="M4YgnX9QREzVjURdx8Bi-27" target="M4YgnX9QREzVjURdx8Bi-3">
          <mxGeometry width="100" height="100" relative="1" as="geometry">
            <mxPoint x="800" y="70" as="sourcePoint" />
            <mxPoint x="1124" y="70" as="targetPoint" />
          </mxGeometry>
        </mxCell>
        <mxCell id="M4YgnX9QREzVjURdx8Bi-78" style="edgeStyle=orthogonalEdgeStyle;rounded=0;orthogonalLoop=1;jettySize=auto;html=1;" edge="1" parent="WIyWlLk6GJQsqaUBKTNV-1" source="M4YgnX9QREzVjURdx8Bi-77">
          <mxGeometry relative="1" as="geometry">
            <mxPoint x="740" y="80" as="targetPoint" />
          </mxGeometry>
        </mxCell>
        <mxCell id="M4YgnX9QREzVjURdx8Bi-77" value="Kiracı kısmına her eleman eklendiğinde daire kısmına da eleman ekleniyor ama kiracı birden fazla dairede kiracı ise o zaman eklenmiyor.." style="shape=note;whiteSpace=wrap;html=1;backgroundOutline=1;fontColor=#000000;darkOpacity=0.05;fillColor=#FFF9B2;strokeColor=none;fillStyle=solid;direction=west;gradientDirection=north;gradientColor=#FFF2A1;shadow=1;size=20;pointerEvents=1;" vertex="1" parent="WIyWlLk6GJQsqaUBKTNV-1">
          <mxGeometry x="810" width="140" height="160" as="geometry" />
        </mxCell>
      </root>
    </mxGraphModel>
  </diagram>
</mxfile>
